<svg width="368" height="372" viewBox="0 0 368 372" fill="none" xmlns="http://www.w3.org/2000/svg">
<path d="M162.479 333.439C226.633 333.439 278.641 281.443 278.641 217.302C278.641 153.162 226.633 101.166 162.479 101.166C98.3236 101.166 46.3158 153.162 46.3158 217.302C46.3158 281.443 98.3236 333.439 162.479 333.439Z" fill="#D9D9D9" fill-opacity="0.54"/>
<mask id="mask0_3107_158" style="mask-type:luminance" maskUnits="userSpaceOnUse" x="229" y="284" width="88" height="88">
<path d="M316.303 284.898H229.181V372H316.303V284.898Z" fill="white"/>
</mask>
<g mask="url(#mask0_3107_158)">
<path d="M303.235 284.898H242.25C235.032 284.898 229.181 290.747 229.181 297.963V358.935C229.181 366.151 235.032 372 242.25 372H303.235C310.453 372 316.303 366.151 316.303 358.935V297.963C316.303 290.747 310.453 284.898 303.235 284.898Z" fill="#25D366"/>
<path d="M250.111 351.755L252.493 340.698C249.431 335.869 248.237 330.09 249.134 324.443C250.031 318.798 252.958 313.673 257.366 310.031C261.774 306.388 267.359 304.479 273.075 304.662C278.79 304.844 284.242 307.105 288.408 311.021C292.575 314.937 295.169 320.238 295.704 325.929C296.239 331.621 294.679 337.313 291.316 341.936C287.952 346.559 283.017 349.797 277.436 351.041C271.854 352.285 266.011 351.45 261.001 348.693L250.111 351.755Z" fill="#25D366" stroke="#F0F2F5" stroke-width="5"/>
<path d="M281.591 331.341C281.08 331.001 280.57 330.83 280.059 331.511L278.017 334.233C277.507 334.573 277.167 334.743 276.486 334.403C273.934 333.042 270.36 331.511 267.297 326.407C267.127 325.727 267.467 325.387 267.808 325.046L269.339 322.665C269.68 322.324 269.509 321.984 269.339 321.644L267.297 316.71C266.787 315.349 266.276 315.52 265.766 315.52H264.405C264.064 315.52 263.384 315.69 262.703 316.37C258.959 320.113 260.491 325.387 263.213 328.789C263.724 329.469 267.127 335.594 274.444 338.826C279.889 341.208 281.08 340.868 282.612 340.527C284.483 340.357 286.355 338.826 287.206 337.295C287.376 336.785 288.227 334.573 287.546 334.233" fill="#F0F2F5"/>
</g>
<path d="M64.92 352.946C94.7421 352.946 118.918 328.776 118.918 298.961C118.918 269.146 94.7421 244.976 64.92 244.976C35.098 244.976 10.9225 269.146 10.9225 298.961C10.9225 328.776 35.098 352.946 64.92 352.946Z" fill="url(#paint0_linear_3107_158)"/>
<path d="M91.867 276.63C92.3475 273.523 89.394 271.072 86.6315 272.284L31.6144 296.435C29.6335 297.304 29.7784 300.304 31.8329 300.958L43.1786 304.57C45.3443 305.26 47.6888 304.903 49.5801 303.597L75.1604 285.929C75.9318 285.396 76.7726 286.492 76.1133 287.171L57.7002 306.151C55.9142 307.992 56.2686 311.112 58.4171 312.459L79.0328 325.384C81.3447 326.834 84.3191 325.378 84.7516 322.584L91.867 276.63Z" fill="#F0F2F5"/>
<path d="M281.664 67.0857V100.097L293.339 107.359C293.76 107.451 294.197 107.451 294.618 107.359L344.816 73.8846C344.779 72.2596 344.178 70.6972 343.114 69.4592C342.05 68.2212 340.587 67.3828 338.972 67.0857H281.664Z" fill="#0072C6"/>
<path d="M281.664 112.41L292.309 119.643C292.807 119.943 293.379 120.102 293.963 120.102C294.547 120.102 295.119 119.943 295.617 119.643C293.79 120.733 344.81 87.2285 344.81 87.2285V147.898C344.943 149.128 344.802 150.371 344.399 151.541C343.995 152.711 343.338 153.78 342.473 154.673C341.609 155.565 340.557 156.26 339.392 156.709C338.227 157.158 336.978 157.35 335.73 157.27H281.657L281.664 112.41Z" fill="#0072C6"/>
<path d="M226.555 97.1914C224.786 97.1832 223.048 97.6482 221.525 98.5374C220.002 99.4265 218.75 100.707 217.902 102.242C215.588 106.313 214.477 110.945 214.697 115.611C214.457 120.266 215.569 124.893 217.902 128.943C218.746 130.415 219.967 131.642 221.442 132.5C222.918 133.357 224.595 133.816 226.306 133.83C228.017 133.843 229.702 133.411 231.191 132.576C232.679 131.742 233.92 130.534 234.787 129.075C237.095 125.044 238.184 120.441 237.925 115.815C238.189 111.044 237.136 106.292 234.879 102.068C234.072 100.582 232.87 99.3426 231.403 98.4834C229.936 97.6242 228.26 97.1773 226.555 97.1914Z" fill="#0072C6"/>
<path d="M176.059 50.318V179.462L275.382 200.063V31.3024L176.059 50.318ZM242.526 136.724C240.668 139.314 238.197 141.417 235.33 142.846C232.462 144.276 229.284 144.99 226.074 144.927C222.944 144.982 219.847 144.288 217.046 142.905C214.245 141.522 211.824 139.49 209.987 136.983C205.632 130.968 203.453 123.676 203.803 116.286C203.432 108.532 205.65 100.874 210.115 94.4912C211.997 91.8509 214.506 89.7092 217.422 88.2543C220.338 86.7998 223.571 86.0767 226.835 86.1497C229.942 86.0881 233.018 86.7817 235.79 88.1699C238.563 89.5581 240.949 91.5986 242.739 94.1115C247.051 100.257 249.193 107.638 248.832 115.11C249.212 122.807 246.994 130.411 242.526 136.724Z" fill="#0072C6"/>
<mask id="mask1_3107_158" style="mask-type:luminance" maskUnits="userSpaceOnUse" x="10" y="94" width="73" height="73">
<path d="M82.6166 94.361H10.0149V166.946H82.6166V94.361Z" fill="white"/>
</mask>
<g mask="url(#mask1_3107_158)">
<path d="M76.6592 104.396C79.9304 104.396 82.6071 107.072 82.6071 110.342V112.066L74.3437 117.968L46.2118 137.342L18.08 117.771V156.911H15.9626C12.6915 156.911 10.0149 154.235 10.0149 150.965V110.344C10.0149 107.074 12.6915 104.398 15.9626 104.398L46.2118 126.82L76.6578 104.398L76.6592 104.396Z" fill="#E75A4D"/>
<path d="M15.9626 104.396L46.2119 126.818L76.6592 104.396H15.9626Z" fill="url(#paint1_linear_3107_158)"/>
<path d="M18.08 117.771V156.911H74.3455V117.968L46.2119 137.342L18.08 117.771Z" fill="#E7E4D7"/>
<path d="M18.08 156.911L46.2119 137.342L46.0843 137.252L18.08 156.481V156.911Z" fill="#B8B7AE"/>
<path d="M82.6071 112.066L82.6166 150.97C82.475 155.294 80.601 156.837 74.3613 156.91L74.3455 117.966L82.6084 112.065L82.6071 112.066Z" fill="#B2392F" fill-opacity="0.2"/>
<path d="M15.9626 104.396L46.2119 126.818L76.6592 104.396H15.9626Z" fill="url(#paint2_linear_3107_158)"/>
<path d="M15.9626 104.396L46.2119 126.818L76.6592 104.396H15.9626Z" fill="url(#paint3_linear_3107_158)"/>
<path d="M15.9626 104.396L46.2119 126.818L76.6592 104.396H15.9626Z" fill="url(#paint4_linear_3107_158)"/>
<path d="M15.9626 104.396L46.2119 126.818L76.6592 104.396H15.9626Z" fill="url(#paint5_linear_3107_158)"/>
<path d="M15.9626 104.396L46.2119 126.818L76.6592 104.396H15.9626Z" fill="url(#paint6_linear_3107_158)"/>
<path d="M15.9626 104.396L46.2119 126.818L76.6592 104.396H15.9626Z" fill="url(#paint7_linear_3107_158)"/>
<path d="M15.9626 104.396L46.2119 126.818L76.6592 104.396H15.9626Z" fill="url(#paint8_linear_3107_158)"/>
<path d="M15.9626 104.396L46.2119 126.818L76.6592 104.396H15.9626Z" fill="#F7F5ED"/>
<path d="M74.4494 117.8L74.4653 156.744L46.3158 137.175L74.4494 117.8Z" fill="#B7B6AD"/>
</g>
<defs>
<linearGradient id="paint0_linear_3107_158" x1="64.92" y1="244.976" x2="64.92" y2="352.946" gradientUnits="userSpaceOnUse">
<stop stop-color="#37BBFE"/>
<stop offset="1" stop-color="#007DBB"/>
</linearGradient>
<linearGradient id="paint1_linear_3107_158" x1="26.8833" y1="115.609" x2="65.6651" y2="115.609" gradientUnits="userSpaceOnUse">
<stop stop-color="#F8F6EF"/>
<stop offset="1" stop-color="#E7E4D6"/>
</linearGradient>
<linearGradient id="paint2_linear_3107_158" x1="26.8833" y1="115.609" x2="65.6651" y2="115.609" gradientUnits="userSpaceOnUse">
<stop stop-color="#F8F6EF"/>
<stop offset="1" stop-color="#E7E4D6"/>
</linearGradient>
<linearGradient id="paint3_linear_3107_158" x1="26.8833" y1="115.609" x2="65.6651" y2="115.609" gradientUnits="userSpaceOnUse">
<stop stop-color="#F8F6EF"/>
<stop offset="1" stop-color="#E7E4D6"/>
</linearGradient>
<linearGradient id="paint4_linear_3107_158" x1="26.8833" y1="115.609" x2="65.6651" y2="115.609" gradientUnits="userSpaceOnUse">
<stop stop-color="#F8F6EF"/>
<stop offset="1" stop-color="#E7E4D6"/>
</linearGradient>
<linearGradient id="paint5_linear_3107_158" x1="26.8833" y1="115.609" x2="65.6651" y2="115.609" gradientUnits="userSpaceOnUse">
<stop stop-color="#F8F6EF"/>
<stop offset="1" stop-color="#E7E4D6"/>
</linearGradient>
<linearGradient id="paint6_linear_3107_158" x1="26.8833" y1="115.609" x2="65.6651" y2="115.609" gradientUnits="userSpaceOnUse">
<stop stop-color="#F8F6EF"/>
<stop offset="1" stop-color="#E7E4D6"/>
</linearGradient>
<linearGradient id="paint7_linear_3107_158" x1="26.8833" y1="115.609" x2="65.6651" y2="115.609" gradientUnits="userSpaceOnUse">
<stop stop-color="#F8F6EF"/>
<stop offset="1" stop-color="#E7E4D6"/>
</linearGradient>
<linearGradient id="paint8_linear_3107_158" x1="26.8833" y1="115.609" x2="65.6651" y2="115.609" gradientUnits="userSpaceOnUse">
<stop stop-color="#F8F6EF"/>
<stop offset="1" stop-color="#E7E4D6"/>
</linearGradient>
</defs>
</svg>
