<svg width="164" height="44" viewBox="0 0 164 44" fill="none" xmlns="http://www.w3.org/2000/svg">
<line x1="6.025" y1="40" x2="6.025" y2="4" stroke="#03000D" stroke-width="1.95"/>
<line x1="4" y1="38.025" x2="36" y2="38.025" stroke="#03000D" stroke-width="1.95"/>
<rect x="55.5" y="22" width="1.95" height="1.95" fill="#03000D"/>
<line x1="40" y1="6.025" x2="72" y2="6.025" stroke="#03000D" stroke-width="1.95"/>
<line x1="72" y1="37.975" x2="40" y2="37.975" stroke="#03000D" stroke-width="1.95"/>
<line x1="42.025" y1="40" x2="42.025" y2="4" stroke="#03000D" stroke-width="1.95"/>
<line x1="70.025" y1="40" x2="70.025" y2="4" stroke="#03000D" stroke-width="1.95"/>
<line x1="77.975" y1="4" x2="77.975" y2="40" stroke="#03000D" stroke-width="1.95"/>
<line x1="122.025" y1="40" x2="122.025" y2="4" stroke="#03000D" stroke-width="1.95"/>
<line x1="124" y1="37.975" x2="76" y2="37.975" stroke="#03000D" stroke-width="1.95"/>
<line x1="76" y1="6.025" x2="124" y2="6.025" stroke="#03000D" stroke-width="1.95"/>
<path d="M121.511 7.20864L99.5 19.5" stroke="#03000D" stroke-width="1.5"/>
<path d="M78.5 7L100.359 19.3416" stroke="#03000D" stroke-width="1.5"/>
<path d="M100.639 25.6573L82 15.5" stroke="#03000D" stroke-width="1.5"/>
<line x1="99.6507" y1="25.3363" x2="118.651" y2="15.3363" stroke="#03000D" stroke-width="1.5"/>
<path d="M85.5 17.2822V32.5H81.5V14.8828L85.5 17.2822Z" fill="#03000D" stroke="#03000D"/>
<path d="M118.5 32.5H114.5V17.7598L118.5 14.96V32.5Z" fill="#03000D" stroke="#03000D"/>
<line x1="130.025" y1="40" x2="130.025" y2="4" stroke="#03000D" stroke-width="1.95"/>
<line x1="158.025" y1="40" x2="158.025" y2="4" stroke="#03000D" stroke-width="1.95"/>
<line x1="128" y1="6.025" x2="160" y2="6.025" stroke="#03000D" stroke-width="1.95"/>
<rect width="1.95" height="1.95" transform="translate(143 22)" fill="#03000D"/>
</svg>
