<svg width="64" height="36" viewBox="0 0 64 36" fill="none" xmlns="http://www.w3.org/2000/svg">
<path d="M42 19.2C40.817 19.1948 39.6619 18.8399 38.68 18.18L28.9 11.66C28.5119 11.3474 28.2545 10.9012 28.1782 10.4088C28.1019 9.91632 28.2122 9.41312 28.4874 8.99772C28.7627 8.58232 29.1831 8.28465 29.6664 8.16299C30.1496 8.04134 30.6609 8.10447 31.1 8.34003L40.9 14.86C41.2266 15.0751 41.609 15.1897 42 15.1897C42.391 15.1897 42.7734 15.0751 43.1 14.86L52.9 8.34003C53.3391 8.10447 53.8504 8.04134 54.3336 8.16299C54.8169 8.28465 55.2373 8.58232 55.5126 8.99772C55.7878 9.41312 55.8981 9.91632 55.8218 10.4088C55.7455 10.9012 55.4881 11.3474 55.1 11.66L45.32 18.18C44.3381 18.8399 43.183 19.1948 42 19.2Z" fill="#3F3D56"/>
<path d="M58 36H26C24.4087 36 22.8826 35.3679 21.7574 34.2426C20.6321 33.1174 20 31.5913 20 30V6C20 4.4087 20.6321 2.88258 21.7574 1.75736C22.8826 0.632141 24.4087 0 26 0H58C59.5913 0 61.1174 0.632141 62.2426 1.75736C63.3679 2.88258 64 4.4087 64 6V30C64 31.5913 63.3679 33.1174 62.2426 34.2426C61.1174 35.3679 59.5913 36 58 36ZM26 4C25.4696 4 24.9609 4.21071 24.5858 4.58579C24.2107 4.96086 24 5.46957 24 6V30C24 30.5304 24.2107 31.0391 24.5858 31.4142C24.9609 31.7893 25.4696 32 26 32H58C58.5304 32 59.0391 31.7893 59.4142 31.4142C59.7893 31.0391 60 30.5304 60 30V6C60 5.46957 59.7893 4.96086 59.4142 4.58579C59.0391 4.21071 58.5304 4 58 4H26Z" fill="#3F3D56"/>
<path d="M14.0001 24H10.0001C9.46963 24 8.96092 23.7893 8.58585 23.4142C8.21078 23.0391 8.00006 22.5304 8.00006 22C8.00006 21.4696 8.21078 20.9609 8.58585 20.5858C8.96092 20.2107 9.46963 20 10.0001 20H14.0001C14.5305 20 15.0392 20.2107 15.4143 20.5858C15.7893 20.9609 16.0001 21.4696 16.0001 22C16.0001 22.5304 15.7893 23.0391 15.4143 23.4142C15.0392 23.7893 14.5305 24 14.0001 24Z" fill="#77ACF1"/>
<path d="M14 16H6C5.46957 16 4.96086 15.7893 4.58579 15.4142C4.21071 15.0391 4 14.5304 4 14C4 13.4696 4.21071 12.9609 4.58579 12.5858C4.96086 12.2107 5.46957 12 6 12H14C14.5304 12 15.0391 12.2107 15.4142 12.5858C15.7893 12.9609 16 13.4696 16 14C16 14.5304 15.7893 15.0391 15.4142 15.4142C15.0391 15.7893 14.5304 16 14 16Z" fill="#77ACF1"/>
<path d="M14 8H2C1.46957 8 0.960859 7.78929 0.585787 7.41421C0.210714 7.03914 0 6.53043 0 6C0 5.46957 0.210714 4.96086 0.585787 4.58579C0.960859 4.21071 1.46957 4 2 4H14C14.5304 4 15.0391 4.21071 15.4142 4.58579C15.7893 4.96086 16 5.46957 16 6C16 6.53043 15.7893 7.03914 15.4142 7.41421C15.0391 7.78929 14.5304 8 14 8Z" fill="#77ACF1"/>
</svg>
