<svg width="277" height="328" viewBox="0 0 277 328" fill="none" xmlns="http://www.w3.org/2000/svg">
<path d="M39.375 165.125C38.2659 165.12 37.183 164.787 36.2625 164.169L27.0937 158.056C26.7299 157.763 26.4886 157.345 26.417 156.883C26.3455 156.422 26.4489 155.95 26.7069 155.56C26.965 155.171 27.3591 154.892 27.8122 154.778C28.2652 154.664 28.7445 154.723 29.1562 154.944L38.3437 161.056C38.6499 161.258 39.0084 161.365 39.375 161.365C39.7415 161.365 40.1001 161.258 40.4062 161.056L49.5937 154.944C50.0054 154.723 50.4847 154.664 50.9377 154.778C51.3908 154.892 51.7849 155.171 52.043 155.56C52.3011 155.95 52.4044 156.422 52.3329 156.883C52.2614 157.345 52.02 157.763 51.6562 158.056L42.4875 164.169C41.5669 164.787 40.484 165.12 39.375 165.125Z" fill="#3F3D56"/>
<path d="M54.375 180.875H24.375C22.8832 180.875 21.4524 180.282 20.3975 179.227C19.3426 178.173 18.75 176.742 18.75 175.25V152.75C18.75 151.258 19.3426 149.827 20.3975 148.773C21.4524 147.718 22.8832 147.125 24.375 147.125H54.375C55.8668 147.125 57.2976 147.718 58.3525 148.773C59.4074 149.827 60 151.258 60 152.75V175.25C60 176.742 59.4074 178.173 58.3525 179.227C57.2976 180.282 55.8668 180.875 54.375 180.875ZM24.375 150.875C23.8777 150.875 23.4008 151.073 23.0492 151.424C22.6975 151.776 22.5 152.253 22.5 152.75V175.25C22.5 175.747 22.6975 176.224 23.0492 176.576C23.4008 176.927 23.8777 177.125 24.375 177.125H54.375C54.8723 177.125 55.3492 176.927 55.7008 176.576C56.0525 176.224 56.25 175.747 56.25 175.25V152.75C56.25 152.253 56.0525 151.776 55.7008 151.424C55.3492 151.073 54.8723 150.875 54.375 150.875H24.375Z" fill="#3F3D56"/>
<path d="M13.125 169.625H9.375C8.87772 169.625 8.40081 169.427 8.04918 169.076C7.69754 168.724 7.5 168.247 7.5 167.75C7.5 167.253 7.69754 166.776 8.04918 166.424C8.40081 166.073 8.87772 165.875 9.375 165.875H13.125C13.6223 165.875 14.0992 166.073 14.4508 166.424C14.8025 166.776 15 167.253 15 167.75C15 168.247 14.8025 168.724 14.4508 169.076C14.0992 169.427 13.6223 169.625 13.125 169.625Z" fill="#77ACF1"/>
<path d="M13.125 162.125H5.625C5.12772 162.125 4.65081 161.927 4.29917 161.576C3.94754 161.224 3.75 160.747 3.75 160.25C3.75 159.753 3.94754 159.276 4.29917 158.924C4.65081 158.573 5.12772 158.375 5.625 158.375H13.125C13.6223 158.375 14.0992 158.573 14.4508 158.924C14.8025 159.276 15 159.753 15 160.25C15 160.747 14.8025 161.224 14.4508 161.576C14.0992 161.927 13.6223 162.125 13.125 162.125Z" fill="#77ACF1"/>
<path d="M13.125 154.625H1.875C1.37772 154.625 0.900806 154.427 0.549175 154.076C0.197544 153.724 0 153.247 0 152.75C0 152.253 0.197544 151.776 0.549175 151.424C0.900806 151.073 1.37772 150.875 1.875 150.875H13.125C13.6223 150.875 14.0992 151.073 14.4508 151.424C14.8025 151.776 15 152.253 15 152.75C15 153.247 14.8025 153.724 14.4508 154.076C14.0992 154.427 13.6223 154.625 13.125 154.625Z" fill="#77ACF1"/>
<g clip-path="url(#clip0_3075_385)">
<mask id="mask0_3075_385" style="mask-type:luminance" maskUnits="userSpaceOnUse" x="108" y="0" width="170" height="328">
<path d="M277.054 0H108.41V328H277.054V0Z" fill="white"/>
</mask>
<g mask="url(#mask0_3075_385)">
<path d="M277.055 77.9463H275.195V28.5751C275.195 20.9965 272.091 13.7283 266.565 8.36945C261.039 3.01058 253.545 0 245.73 0H137.875C130.061 0 122.566 3.01058 117.04 8.36945C111.515 13.7283 108.41 20.9965 108.41 28.5751V299.428C108.41 307.006 111.515 314.274 117.04 319.634C122.566 324.992 130.061 328.003 137.875 328.003H245.732C249.602 328.003 253.433 327.264 257.008 325.828C260.583 324.392 263.831 322.287 266.567 319.634C269.303 316.98 271.474 313.83 272.955 310.363C274.435 306.896 275.198 303.18 275.198 299.428V113.089H277.058L277.055 77.9463Z" fill="#03000D"/>
<path d="M246.925 7.43567H232.848C233.495 8.97522 233.742 10.6456 233.567 12.2996C233.392 13.9536 232.8 15.5405 231.844 16.9204C230.888 18.3004 229.596 19.431 228.083 20.2127C226.569 20.9944 224.881 21.4032 223.167 21.403H161.373C159.659 21.4032 157.97 20.9944 156.457 20.2127C154.944 19.431 153.652 18.3004 152.696 16.9204C151.739 15.5405 151.147 13.9536 150.972 12.2996C150.798 10.6456 151.045 8.97522 151.692 7.43567H138.545C132.709 7.43567 127.112 9.6839 122.986 13.6858C118.859 17.6878 116.541 23.1155 116.541 28.7751V299.231C116.541 304.89 118.859 310.318 122.986 314.319C127.112 318.321 132.709 320.57 138.545 320.57H246.92C249.81 320.57 252.671 320.018 255.341 318.945C258.011 317.873 260.437 316.301 262.48 314.319C264.523 312.338 266.144 309.985 267.25 307.396C268.356 304.807 268.924 302.033 268.924 299.23V28.7751C268.924 23.1164 266.607 17.6894 262.482 13.6876C258.356 9.68579 252.761 7.43698 246.926 7.43567H246.925Z" fill="#F0F2F5"/>
<path d="M180.814 148.749H163.152C162.799 148.749 162.461 148.614 162.212 148.372C161.962 148.13 161.822 147.802 161.822 147.46C161.822 147.118 161.962 146.79 162.212 146.548C162.461 146.306 162.799 146.171 163.152 146.171H180.814C181.167 146.171 181.505 146.306 181.754 146.548C182.004 146.79 182.143 147.118 182.143 147.46C182.143 147.802 182.004 148.13 181.754 148.372C181.505 148.614 181.167 148.749 180.814 148.749Z" fill="#6C63FF"/>
<path d="M203.896 143.659H163.152C162.977 143.659 162.804 143.625 162.643 143.561C162.482 143.496 162.335 143.401 162.212 143.281C162.088 143.161 161.99 143.02 161.923 142.863C161.857 142.706 161.822 142.539 161.822 142.37C161.822 142.2 161.857 142.033 161.923 141.876C161.99 141.72 162.088 141.578 162.212 141.458C162.335 141.338 162.482 141.243 162.643 141.178C162.804 141.113 162.977 141.08 163.152 141.08H203.896C204.249 141.08 204.587 141.216 204.837 141.458C205.086 141.7 205.226 142.027 205.226 142.37C205.226 142.712 205.086 143.039 204.837 143.281C204.587 143.523 204.249 143.659 203.896 143.659Z" fill="#6C63FF"/>
<path d="M144.25 133.25H143.451C136.239 133.25 130.393 139.094 130.393 146.302C130.393 153.511 136.239 159.355 143.451 159.355H144.25C151.462 159.355 157.309 153.511 157.309 146.302C157.309 139.094 151.462 133.25 144.25 133.25Z" stroke="#3F3D56" stroke-width="0.5"/>
<path d="M140.313 153.067V139.947H141.902V151.658H148.004V153.067H140.313Z" fill="#3F3D56"/>
<path d="M180.814 188.927H163.152C162.799 188.927 162.461 188.791 162.212 188.549C161.962 188.307 161.822 187.979 161.822 187.637C161.822 187.295 161.962 186.967 162.212 186.726C162.461 186.484 162.799 186.348 163.152 186.348H180.814C181.167 186.348 181.505 186.484 181.754 186.726C182.004 186.967 182.143 187.295 182.143 187.637C182.143 187.979 182.004 188.307 181.754 188.549C181.505 188.791 181.167 188.927 180.814 188.927Z" fill="#6C63FF"/>
<path d="M203.896 183.836H163.152C162.977 183.836 162.804 183.803 162.643 183.738C162.482 183.673 162.335 183.578 162.212 183.459C162.088 183.339 161.99 183.197 161.923 183.04C161.857 182.884 161.822 182.716 161.822 182.547C161.822 182.377 161.857 182.21 161.923 182.053C161.99 181.897 162.088 181.755 162.212 181.635C162.335 181.515 162.482 181.42 162.643 181.355C162.804 181.291 162.977 181.257 163.152 181.257H203.896C204.249 181.257 204.587 181.393 204.837 181.635C205.086 181.877 205.226 182.205 205.226 182.547C205.226 182.889 205.086 183.217 204.837 183.459C204.587 183.7 204.249 183.836 203.896 183.836Z" fill="#6C63FF"/>
<path d="M144.25 173.43H143.451C136.239 173.43 130.393 179.274 130.393 186.482C130.393 193.691 136.239 199.535 143.451 199.535H144.25C151.462 199.535 157.309 193.691 157.309 186.482C157.309 179.274 151.462 173.43 144.25 173.43Z" stroke="#3F3D56" stroke-width="0.5"/>
<path d="M140.313 193.247V180.127H141.902V191.838H148.004V193.247H140.313Z" fill="#3F3D56"/>
<path d="M180.814 229.104H163.152C162.799 229.104 162.461 228.968 162.212 228.726C161.962 228.484 161.822 228.156 161.822 227.814C161.822 227.473 161.962 227.145 162.212 226.903C162.461 226.661 162.799 226.525 163.152 226.525H180.814C181.167 226.525 181.505 226.661 181.754 226.903C182.004 227.145 182.143 227.473 182.143 227.814C182.143 228.156 182.004 228.484 181.754 228.726C181.505 228.968 181.167 229.104 180.814 229.104Z" fill="#6C63FF"/>
<path d="M203.896 224.013H163.152C162.977 224.013 162.804 223.98 162.643 223.915C162.482 223.851 162.335 223.755 162.212 223.636C162.088 223.516 161.99 223.374 161.923 223.217C161.857 223.061 161.822 222.893 161.822 222.724C161.822 222.555 161.857 222.387 161.923 222.231C161.99 222.074 162.088 221.932 162.212 221.812C162.335 221.693 162.482 221.598 162.643 221.533C162.804 221.468 162.977 221.435 163.152 221.435H203.896C204.249 221.435 204.587 221.571 204.837 221.812C205.086 222.054 205.226 222.382 205.226 222.724C205.226 223.066 205.086 223.394 204.837 223.636C204.587 223.878 204.249 224.013 203.896 224.013Z" fill="#6C63FF"/>
<path d="M144.25 213.61H143.451C136.239 213.61 130.393 219.454 130.393 226.662C130.393 233.871 136.239 239.715 143.451 239.715H144.25C151.462 239.715 157.309 233.871 157.309 226.662C157.309 219.454 151.462 213.61 144.25 213.61Z" stroke="#3F3D56" stroke-width="0.5"/>
<path d="M140.313 233.427V220.307H141.902V232.018H148.004V233.427H140.313Z" fill="#3F3D56"/>
<path d="M180.815 269.27H163.153C162.801 269.27 162.462 269.134 162.213 268.893C161.964 268.651 161.824 268.323 161.824 267.981C161.824 267.639 161.964 267.311 162.213 267.069C162.462 266.827 162.801 266.691 163.153 266.691H180.815C181.168 266.691 181.506 266.827 181.755 267.069C182.005 267.311 182.145 267.639 182.145 267.981C182.145 268.323 182.005 268.651 181.755 268.893C181.506 269.134 181.168 269.27 180.815 269.27Z" fill="#6C63FF"/>
<path d="M203.898 264.179H163.153C162.979 264.179 162.806 264.146 162.644 264.081C162.483 264.017 162.337 263.921 162.213 263.802C162.09 263.682 161.992 263.54 161.925 263.383C161.858 263.227 161.824 263.06 161.824 262.89C161.824 262.721 161.858 262.553 161.925 262.397C161.992 262.24 162.09 262.098 162.213 261.978C162.337 261.859 162.483 261.764 162.644 261.699C162.806 261.634 162.979 261.601 163.153 261.601H203.898C204.25 261.601 204.589 261.737 204.838 261.978C205.087 262.22 205.227 262.548 205.227 262.89C205.227 263.232 205.087 263.56 204.838 263.802C204.589 264.044 204.25 264.179 203.898 264.179Z" fill="#6C63FF"/>
<path d="M144.252 253.779H143.453C136.241 253.779 130.394 259.623 130.394 266.831C130.394 274.04 136.241 279.884 143.453 279.884H144.252C151.464 279.884 157.31 274.04 157.31 266.831C157.31 259.623 151.464 253.779 144.252 253.779Z" stroke="#3F3D56" stroke-width="0.5"/>
<path d="M140.314 273.596V260.476H141.904V272.187H148.005V273.596H140.314Z" fill="#3F3D56"/>
<path d="M180.814 108.572H163.152C162.799 108.572 162.461 108.436 162.212 108.195C161.962 107.953 161.822 107.625 161.822 107.283C161.822 106.941 161.962 106.613 162.212 106.371C162.461 106.129 162.799 105.994 163.152 105.994H180.814C181.167 105.994 181.505 106.129 181.754 106.371C182.004 106.613 182.143 106.941 182.143 107.283C182.143 107.625 182.004 107.953 181.754 108.195C181.505 108.436 181.167 108.572 180.814 108.572Z" fill="#6C63FF"/>
<path d="M203.896 103.481H163.152C162.977 103.481 162.804 103.448 162.643 103.383C162.482 103.319 162.335 103.224 162.212 103.104C162.088 102.984 161.99 102.842 161.923 102.686C161.857 102.529 161.822 102.361 161.822 102.192C161.822 102.023 161.857 101.855 161.923 101.699C161.99 101.542 162.088 101.4 162.212 101.28C162.335 101.16 162.482 101.066 162.643 101.001C162.804 100.936 162.977 100.903 163.152 100.903H203.896C204.249 100.903 204.587 101.039 204.837 101.28C205.086 101.522 205.226 101.85 205.226 102.192C205.226 102.534 205.086 102.862 204.837 103.104C204.587 103.346 204.249 103.481 203.896 103.481Z" fill="#6C63FF"/>
<path d="M144.25 93.0699H143.451C136.239 93.0699 130.393 98.9137 130.393 106.122C130.393 113.331 136.239 119.175 143.451 119.175H144.25C151.462 119.175 157.309 113.331 157.309 106.122C157.309 98.9137 151.462 93.0699 144.25 93.0699Z" stroke="#3F3D56" stroke-width="0.5"/>
<path d="M140.313 112.887V99.7673H141.902V111.478H148.004V112.887H140.313Z" fill="#3F3D56"/>
</g>
</g>
<defs>
<clipPath id="clip0_3075_385">
<rect width="169" height="328" fill="white" transform="translate(108)"/>
</clipPath>
</defs>
</svg>
