<svg width="36" height="36" viewBox="0 0 36 36" fill="none" xmlns="http://www.w3.org/2000/svg">
<path d="M30 19.4999C30 26.9999 24.75 30.7499 18.51 32.9249C18.1832 33.0357 17.8283 33.0304 17.505 32.9099C11.25 30.7499 6 26.9999 6 19.4999V8.99994C6 8.60212 6.15804 8.22059 6.43934 7.93928C6.72064 7.65798 7.10218 7.49994 7.5 7.49994C10.5 7.49994 14.25 5.69994 16.86 3.41994C17.1778 3.14844 17.582 2.99927 18 2.99927C18.418 2.99927 18.8222 3.14844 19.14 3.41994C21.765 5.71494 25.5 7.49994 28.5 7.49994C28.8978 7.49994 29.2794 7.65798 29.5607 7.93928C29.842 8.22059 30 8.60212 30 8.99994V19.4999Z" fill="#77ACF1"/>
<path d="M13.5 17.9999L16.5 20.9999L22.5 14.9999" fill="#77ACF1"/>
<path d="M13.5 17.9999L16.5 20.9999L22.5 14.9999M30 19.4999C30 26.9999 24.75 30.7499 18.51 32.9249C18.1832 33.0357 17.8283 33.0304 17.505 32.9099C11.25 30.7499 6 26.9999 6 19.4999V8.99994C6 8.60212 6.15804 8.22059 6.43934 7.93928C6.72064 7.65798 7.10218 7.49994 7.5 7.49994C10.5 7.49994 14.25 5.69994 16.86 3.41994C17.1778 3.14844 17.582 2.99927 18 2.99927C18.418 2.99927 18.8222 3.14844 19.14 3.41994C21.765 5.71494 25.5 7.49994 28.5 7.49994C28.8978 7.49994 29.2794 7.65798 29.5607 7.93928C29.842 8.22059 30 8.60212 30 8.99994V19.4999Z" stroke="#03000D" stroke-width="2" stroke-linecap="round" stroke-linejoin="round"/>
</svg>
